<?xml version="1.0" encoding="UTF-8"?>
<svg id="Layer_1" data-name="Layer 1" xmlns="http://www.w3.org/2000/svg" viewBox="0 0 566.93 566.93">
  <defs>
    <style>
      .cls-1 {
        font-size: 34.74px;
      }

      .cls-1, .cls-2, .cls-3, .cls-4, .cls-5 {
        fill: #6155a4;
      }

      .cls-1, .cls-2, .cls-4, .cls-5 {
        font-family: MarcellusSC-Regular, 'Marcellus SC';
      }

      .cls-2 {
        font-size: 29.86px;
      }

      .cls-6, .cls-7 {
        fill: none;
      }

      .cls-8 {
        fill: #fff;
      }

      .cls-8, .cls-7 {
        stroke: #6155a4;
        stroke-miterlimit: 10;
        stroke-width: 2px;
      }

      .cls-4 {
        font-size: 27.77px;
      }

      .cls-5 {
        font-size: 28.22px;
      }
    </style>
  </defs>
  <ellipse class="cls-7" cx="291.71" cy="270.78" rx="238.21" ry="220.39"/>
  <ellipse class="cls-7" cx="291.71" cy="270.78" rx="190.95" ry="176.66"/>
  <g>
    <path class="cls-8" d="M287.54,381.19c2.96-11.58,4.87-20.32,8.23-31.78,2.39-8.18,5.55-16.16,8.71-24.1,1.66-4.16,3.57-8.5,7.66-10.88,3.51-2.05,7.3-3.76,11.15-5.06,6.74-2.28,13.82-3,20.88-3.76,4.45-.48,8.63-1.96,12.57-4.2,3.4-1.93,6.91-3.72,10.53-5.18,2.55-1.02,5.34-1.26,8.04,.01,3.01,1.42,3.53,3.52,.98,5.64-2.46,2.06-5.24,3.74-7.88,5.58-.72,.5-1.46,.97-2.04,1.69,1.92-1.17,3.89-2.27,5.75-3.52,1.69-1.14,3.38-2.34,4.88-3.72,2.33-2.13,2.07-4.27-.58-6.03-.63-.42-1.33-.72-2.16-1.15,4.45-5.22,8.99-10.25,15.21-13.35,2.09-1.05,4.32-1.45,6.62-.45,1.06,.46,1.36,1.14,.74,2.05-.99,1.45-2.05,2.84-3.15,4.21-3.86,4.78-7.66,9.6-11.65,14.26-2.35,2.74-5.06,5.18-7.54,7.82-2.84,3.02-5.72,6.02-8.39,9.19-2.17,2.57-4.71,4.58-7.75,5.92-7.89,3.46-15.83,6.82-23.73,10.26-1.72,.75-3.33,1.74-5.04,2.5-4.01,1.78-5.93,5.09-7.02,9.12-2.16,7.97-2.92,16.14-3.42,24.33-.09,1.44,.03,2.89-.23,4.31-1.14,6.31-4.86,3.88-16.23,5.92l-15.13,.39Zm59.79-61.06c4.36-5.11,10.86-6.56,16.53-9.44-6,2.27-12.49,3.68-16.53,9.44Z"/>
    <path class="cls-8" d="M387.8,268.7c-4.66,6.33-7.25,13.69-10.43,20.78-.83,1.85-2.51,3.32-3.83,4.93-.14,.17-.53,.21-.79,.19-3.8-.27-7.31,.62-10.7,2.5,.44-.67,.81-1.38,1.32-1.99,4.26-5.09,6.68-11.23,9.83-16.96,1.68-3.06,3.56-6.06,5.71-8.81,2.66-3.4,6.2-3.52,8.89-.65Z"/>
    <path class="cls-8" d="M377.22,269.39c-3.37,6.5-6.51,12.9-9.99,19.1-1.88,3.35-4.01,6.68-6.65,9.43-2.01,2.1-5,3.27-7.55,4.86-.22-.2-.44-.4-.66-.6,1.18-2.48,2.21-5.05,3.58-7.43,3.17-5.52,6.5-10.96,9.76-16.42,1.46-2.45,2.71-5.06,4.46-7.28,1.56-1.99,3.92-2.7,6.51-1.93,.27,.08,.5,.26,.54,.28Z"/>
    <path class="cls-8" d="M343.88,304.44c.47-.79,.82-1.69,1.42-2.36,4.55-5.02,6.93-11.19,9.31-17.37,.55-1.44,1.42-2.84,2.42-4.02,1.47-1.74,2.98-1.74,4.95-.32-1.42,3.96-2.37,8.04-4.94,11.65-2.17,3.05-3.45,6.73-5.17,10.11-.24,.47-.65,1.08-1.1,1.2-2.19,.59-4.42,1.04-6.63,1.53-.09-.14-.17-.28-.26-.41Z"/>
  </g>
  <g>
    <path class="cls-8" d="M282.52,380.91c-14.44-1.58-18.35,.67-19-10.13,0-.07,0-.14-.01-.21-.5-8.19-1.26-16.36-3.42-24.33-1.09-4.03-3.01-7.34-7.02-9.12-1.71-.76-3.32-1.75-5.04-2.5-7.9-3.44-15.83-6.8-23.73-10.26-3.04-1.33-5.58-3.34-7.75-5.92-2.67-3.17-5.55-6.17-8.39-9.19-2.48-2.64-5.19-5.08-7.54-7.82-3.99-4.66-7.8-9.48-11.65-14.26-1.1-1.36-2.16-2.76-3.15-4.21-.62-.91-.32-1.59,.74-2.05,2.31-1,4.53-.59,6.62,.45,6.22,3.11,10.75,8.14,15.21,13.35-.83,.44-1.53,.73-2.16,1.15-2.65,1.76-2.91,3.89-.58,6.03,1.5,1.38,3.19,2.57,4.88,3.72,1.86,1.26,3.83,2.36,5.75,3.52-.59-.72-1.33-1.19-2.04-1.69-2.64-1.84-5.42-3.52-7.88-5.58-2.54-2.12-2.03-4.23,.98-5.64,2.7-1.27,5.49-1.03,8.04-.01,3.62,1.45,7.13,3.25,10.53,5.18,3.94,2.23,8.12,3.71,12.57,4.2,7.06,.77,14.13,1.48,20.88,3.76,3.85,1.3,7.64,3.01,11.15,5.06,4.08,2.38,6,6.73,7.66,10.88,3.16,7.93,6.32,15.91,8.71,24.1,3.36,11.47,4.82,20.17,7.77,31.75l-12.13-.25Zm-63.74-70.23c5.67,2.88,12.17,4.33,16.53,9.44-4.04-5.76-10.53-7.17-16.53-9.44Z"/>
    <path class="cls-8" d="M194.85,268.7c4.66,6.33,7.25,13.69,10.43,20.78,.83,1.85,2.51,3.32,3.83,4.93,.14,.17,.53,.21,.79,.19,3.8-.27,7.31,.62,10.7,2.5-.44-.67-.81-1.38-1.32-1.99-4.26-5.09-6.68-11.23-9.83-16.96-1.68-3.06-3.56-6.06-5.71-8.81-2.66-3.4-6.2-3.52-8.89-.65Z"/>
    <path class="cls-8" d="M205.43,269.39c3.37,6.5,6.51,12.9,9.99,19.1,1.88,3.35,4.01,6.68,6.65,9.43,2.01,2.1,5,3.27,7.55,4.86,.22-.2,.44-.4,.66-.6-1.18-2.48-2.21-5.05-3.58-7.43-3.17-5.52-6.5-10.96-9.76-16.42-1.46-2.45-2.71-5.06-4.46-7.28-1.56-1.99-3.92-2.7-6.51-1.93-.27,.08-.5,.26-.54,.28Z"/>
    <path class="cls-8" d="M238.76,304.44c-.47-.79-.82-1.69-1.42-2.36-4.55-5.02-6.93-11.19-9.31-17.37-.55-1.44-1.42-2.84-2.42-4.02-1.47-1.74-2.98-1.74-4.95-.32,1.42,3.96,2.37,8.04,4.94,11.65,2.17,3.05,3.45,6.73,5.17,10.11,.24,.47,.65,1.08,1.1,1.2,2.19,.59,4.42,1.04,6.63,1.53,.09-.14,.17-.28,.26-.41Z"/>
  </g>
  <path class="cls-7" d="M291.71,132.26c-83.75,0-151.65,62.02-151.65,138.52s67.89,138.52,151.65,138.52,151.65-62.02,151.65-138.52-67.89-138.52-151.65-138.52Zm0,248.93c-70.77,0-128.14-48.89-128.14-109.19,0-38.04,22.83-71.53,57.45-91.08h141.38c34.62,19.55,57.45,53.04,57.45,91.08,0,60.3-57.37,109.19-128.14,109.19Z"/>
  <path class="cls-8" d="M179.61,228.51c7.15,38.11,54.63,67.57,112.19,67.57s105.04-29.46,112.19-67.57H179.61Z"/>
  <text class="cls-1" transform="translate(110.13 350.08) rotate(-113.68)"><tspan x="0" y="0">K</tspan></text>
  <text class="cls-1" transform="translate(101.34 330.25) rotate(-106.41)"><tspan x="0" y="0">A</tspan></text>
  <text class="cls-1" transform="translate(94.39 308.65) rotate(-96.96)"><tspan x="0" y="0">M</tspan></text>
  <text class="cls-1" transform="translate(90.8 274.34) rotate(-88.5)"><tspan x="0" y="0">P</tspan></text>
  <text class="cls-1" transform="translate(90.98 258.01) rotate(-82.17)"><tspan x="0" y="0">A</tspan></text>
  <text class="cls-1" transform="translate(94.28 235.33) rotate(-75.82)"><tspan x="0" y="0">L</tspan></text>
  <text class="cls-1" transform="translate(97.79 220.41) rotate(-69.53)"><tspan x="0" y="0">A</tspan></text>
  <text class="cls-1" transform="translate(106.11 198.94) rotate(-64.2)"><tspan x="0" y="0"> </tspan></text>
  <text class="cls-1" transform="translate(110.09 189.88) rotate(-58.77)"><tspan x="0" y="0">D</tspan></text>
  <text class="cls-1" transform="translate(122.75 169.34) rotate(-52.49)"><tspan x="0" y="0">E</tspan></text>
  <text class="cls-1" transform="translate(132.64 156.18) rotate(-46.64)"><tspan x="0" y="0">V</tspan></text>
  <text class="cls-1" transform="translate(148.01 140.08) rotate(-40.94)"><tspan x="0" y="0">E</tspan></text>
  <text class="cls-1" transform="translate(160.54 129.21) rotate(-36.3)"><tspan x="0" y="0">L</tspan></text>
  <text class="cls-1" transform="translate(172.73 119.83) rotate(-30.25)"><tspan x="0" y="0">O</tspan></text>
  <text class="cls-1" transform="translate(196.49 106.26) rotate(-24.05)"><tspan x="0" y="0">P</tspan></text>
  <text class="cls-1" transform="translate(211.89 98.75) rotate(-16.96)"><tspan x="0" y="0">M</tspan></text>
  <text class="cls-1" transform="translate(245.18 89.13) rotate(-10.09)"><tspan x="0" y="0">E</tspan></text>
  <text class="cls-1" transform="translate(261.37 86.01) rotate(-4.58)"><tspan x="0" y="0">N</tspan></text>
  <text class="cls-1" transform="translate(286.36 84.11) rotate(1.3)"><tspan x="0" y="0">T</tspan></text>
  <text class="cls-1" transform="translate(306.7 84.73) rotate(5.27)"><tspan x="0" y="0"> </tspan></text>
  <text class="cls-1" transform="translate(316.64 85.38) rotate(9.65)"><tspan x="0" y="0">C</tspan></text>
  <text class="cls-1" transform="translate(339.19 89.04) rotate(16.4)"><tspan x="0" y="0">O</tspan></text>
  <text class="cls-1" transform="translate(365.37 96.69) rotate(23.86)"><tspan x="0" y="0">O</tspan></text>
  <text class="cls-1" transform="translate(390.3 107.97) rotate(30.05)"><tspan x="0" y="0">P</tspan></text>
  <text class="cls-1" transform="translate(405.28 116.63) rotate(34.84)"><tspan x="0" y="0">E</tspan></text>
  <text class="cls-1" transform="translate(418.89 125.97) rotate(40.08)"><tspan x="0" y="0">R</tspan></text>
  <text class="cls-1" transform="translate(434.19 138.68) rotate(46.37)"><tspan x="0" y="0">A</tspan></text>
  <text class="cls-1" transform="translate(449.43 154.66) rotate(52.61)"><tspan x="0" y="0">T</tspan></text>
  <text class="cls-1" transform="translate(461.58 170.89) rotate(57.1)"><tspan x="0" y="0">I</tspan></text>
  <text class="cls-1" transform="translate(466.59 178.05) rotate(62)"><tspan x="0" y="0">V</tspan></text>
  <text class="cls-1" transform="translate(476.92 197.75) rotate(68.23)"><tspan x="0" y="0">E</tspan></text>
  <text class="cls-1" transform="translate(482.96 213.17) rotate(72.58)"><tspan x="0" y="0"> </tspan></text>
  <text class="cls-1" transform="translate(486.06 222.66) rotate(76.77)"><tspan x="0" y="0">S</tspan></text>
  <text class="cls-1" transform="translate(489.93 237.29) rotate(83.8)"><tspan x="0" y="0">O</tspan></text>
  <text class="cls-1" transform="translate(492.76 264.33) rotate(91.98)"><tspan x="0" y="0">C</tspan></text>
  <text class="cls-1" transform="translate(491.66 287.28) rotate(97.22)"><tspan x="0" y="0">I</tspan></text>
  <text class="cls-1" transform="translate(490.72 296.01) rotate(101.42)"><tspan x="0" y="0">E</tspan></text>
  <text class="cls-1" transform="translate(487.59 312.13) rotate(107.47)"><tspan x="0" y="0">T</tspan></text>
  <text class="cls-1" transform="translate(481.63 331.3) rotate(114.15)"><tspan x="0" y="0">Y</tspan></text>
  <text class="cls-4" transform="translate(132.92 254.6) rotate(-80.97)"><tspan x="0" y="0">L</tspan></text>
  <text class="cls-4" transform="translate(134.62 242.53) rotate(-74.52)"><tspan x="0" y="0">U</tspan></text>
  <text class="cls-4" transform="translate(139.79 224.21) rotate(-67.58)"><tspan x="0" y="0">B</tspan></text>
  <text class="cls-4" transform="translate(145.37 210.34) rotate(-60.95)"><tspan x="0" y="0">A</tspan></text>
  <text class="cls-4" transform="translate(154.11 194.44) rotate(-53.53)"><tspan x="0" y="0">G</tspan></text>
  <text class="cls-4" transform="translate(166.04 178.35) rotate(-46.28)"><tspan x="0" y="0">A</tspan></text>
  <text class="cls-4" transform="translate(178.86 165.25) rotate(-41.43)"><tspan x="0" y="0"> </tspan></text>
  <text class="cls-4" transform="translate(184.61 159.86) rotate(-36.68)"><tspan x="0" y="0">C</tspan></text>
  <text class="cls-4" transform="translate(199.06 148.92) rotate(-29.59)"><tspan x="0" y="0">O</tspan></text>
  <text class="cls-4" transform="translate(217.88 138.19) rotate(-22.02)"><tspan x="0" y="0">O</tspan></text>
  <text class="cls-4" transform="translate(238.12 130.21) rotate(-15.91)"><tspan x="0" y="0">P</tspan></text>
  <text class="cls-4" transform="translate(251.35 126.44) rotate(-11.33)"><tspan x="0" y="0">E</tspan></text>
  <text class="cls-4" transform="translate(264.23 123.78) rotate(-6.43)"><tspan x="0" y="0">R</tspan></text>
  <text class="cls-4" transform="translate(280 121.94) rotate(-.86)"><tspan x="0" y="0">A</tspan></text>
  <text class="cls-4" transform="translate(297.57 121.69) rotate(4.65)"><tspan x="0" y="0">T</tspan></text>
  <text class="cls-4" transform="translate(313.69 123.14) rotate(8.53)"><tspan x="0" y="0">I</tspan></text>
  <text class="cls-4" transform="translate(320.62 123.97) rotate(12.73)"><tspan x="0" y="0">V</tspan></text>
  <text class="cls-4" transform="translate(337.89 127.96) rotate(18)"><tspan x="0" y="0">E</tspan></text>
  <text class="cls-4" transform="translate(350.46 132.12) rotate(21.67)"><tspan x="0" y="0"> </tspan></text>
  <text class="cls-4" transform="translate(357.9 135) rotate(25.19)"><tspan x="0" y="0">S</tspan></text>
  <text class="cls-4" transform="translate(368.98 139.9) rotate(31.16)"><tspan x="0" y="0">O</tspan></text>
  <text class="cls-4" transform="translate(387.48 151.17) rotate(38.27)"><tspan x="0" y="0">C</tspan></text>
  <text class="cls-4" transform="translate(401.73 162.68) rotate(42.89)"><tspan x="0" y="0">I</tspan></text>
  <text class="cls-4" transform="translate(406.94 167.37) rotate(46.64)"><tspan x="0" y="0">E</tspan></text>
  <text class="cls-4" transform="translate(415.99 176.82) rotate(52.14)"><tspan x="0" y="0">T</tspan></text>
  <text class="cls-4" transform="translate(425.84 189.41) rotate(58.46)"><tspan x="0" y="0">Y</tspan></text>
  <text class="cls-4" transform="translate(434.45 203.76) rotate(63.33)"><tspan x="0" y="0"> </tspan></text>
  <text class="cls-4" transform="translate(438.1 210.81) rotate(67.42)"><tspan x="0" y="0">L</tspan></text>
  <text class="cls-4" transform="translate(442.5 220.96) rotate(72.7)"><tspan x="0" y="0">T</tspan></text>
  <text class="cls-4" transform="translate(447.36 236.09) rotate(79.9)"><tspan x="0" y="0">D</tspan></text>
  <text class="cls-5" transform="translate(133.49 354.51) rotate(56.47) scale(1.07 1)"><tspan x="0" y="0">K</tspan></text>
  <text class="cls-5" transform="translate(145.34 372.2) rotate(48.25) scale(1.07 1)"><tspan x="0" y="0">A</tspan></text>
  <text class="cls-5" transform="translate(160.25 389.24) rotate(38.5) scale(1.07 1)"><tspan x="0" y="0">M</tspan></text>
  <text class="cls-5" transform="translate(186.09 408.91) rotate(30.31) scale(1.07 1)"><tspan x="0" y="0">P</tspan></text>
  <text class="cls-5" transform="translate(199.84 417.06) rotate(24.49) scale(1.07 1)"><tspan x="0" y="0">A</tspan></text>
  <text class="cls-5" transform="translate(219.67 425.85) rotate(18.88) scale(1.07 1)"><tspan x="0" y="0">L</tspan></text>
  <text class="cls-5" transform="translate(233.88 430.81) rotate(13.42) scale(1.07 1)"><tspan x="0" y="0">A</tspan></text>
  <text class="cls-5" transform="translate(254.81 435.53) rotate(8.84) scale(1.07 1)"><tspan x="0" y="0"> </tspan></text>
  <text class="cls-5" transform="translate(264.7 437.25) rotate(4.34) scale(1.07 1)"><tspan x="0" y="0">A</tspan></text>
  <text class="cls-5" transform="translate(286.21 438.76) rotate(-1.32) scale(1.07 1)"><tspan x="0" y="0">R</tspan></text>
  <text class="cls-5" transform="translate(305.28 438.33) rotate(-7.08) scale(1.07 1)"><tspan x="0" y="0">C</tspan></text>
  <text class="cls-5" transform="translate(326.95 435.6) rotate(-13.64) scale(1.07 1)"><tspan x="0" y="0">H</tspan></text>
  <text class="cls-5" transform="translate(349.72 429.98) rotate(-20.58) scale(1.07 1)"><tspan x="0" y="0">D</tspan></text>
  <text class="cls-5" transform="translate(370.74 421.74) rotate(-25.44) scale(1.07 1)"><tspan x="0" y="0">I</tspan></text>
  <text class="cls-5" transform="translate(379.19 418.09) rotate(-30.93) scale(1.07 1)"><tspan x="0" y="0">O</tspan></text>
  <text class="cls-5" transform="translate(401.42 404.5) rotate(-38.89) scale(1.07 1)"><tspan x="0" y="0">C</tspan></text>
  <text class="cls-5" transform="translate(418.29 390.58) rotate(-45.54) scale(1.07 1)"><tspan x="0" y="0">E</tspan></text>
  <text class="cls-5" transform="translate(429.45 379.09) rotate(-51.21) scale(1.07 1)"><tspan x="0" y="0">S</tspan></text>
  <text class="cls-5" transform="translate(438.84 367.35) rotate(-57.17) scale(1.07 1)"><tspan x="0" y="0">E</tspan></text>
  <text class="cls-2" transform="translate(191.41 456.83) rotate(22.03)"><tspan x="0" y="0">A</tspan></text>
  <text class="cls-2" transform="translate(211.25 464.8) rotate(16.87)"><tspan x="0" y="0">C</tspan></text>
  <text class="cls-2" transform="translate(231.65 470.89) rotate(12.07)"><tspan x="0" y="0">T</tspan></text>
  <text class="cls-2" transform="translate(249.96 474.7) rotate(8.15)"><tspan x="0" y="0">S</tspan></text>
  <text class="cls-2" transform="translate(264.03 476.64) rotate(5.37)"><tspan x="0" y="0"> </tspan></text>
  <text class="cls-2" transform="translate(273.59 477.61) rotate(2.34)"><tspan x="0" y="0">2</tspan></text>
  <text class="cls-2" transform="translate(290.07 478.17) rotate(-.45)"><tspan x="0" y="0">:</tspan></text>
  <text class="cls-2" transform="translate(297.48 478.12) rotate(-2.35)"><tspan x="0" y="0"> </tspan></text>
  <text class="cls-2" transform="translate(307.11 477.82) rotate(-5.53)"><tspan x="0" y="0">4</tspan></text>
  <text class="cls-2" transform="translate(324.85 476.02) rotate(-9.34)"><tspan x="0" y="0">5</tspan></text>
  <text class="cls-2" transform="translate(339.28 473.61) rotate(-12.61)"><tspan x="0" y="0">-</tspan></text>
  <text class="cls-2" transform="translate(352.04 470.81) rotate(-16.31)"><tspan x="0" y="0">4</tspan></text>
  <text class="cls-2" transform="translate(369.17 465.73) rotate(-20.31)"><tspan x="0" y="0">7</tspan></text>
  <path class="cls-6" d="M289.84,196.53c-1.03-1.18-2.3-2.07-3.81-2.68-1.51-.61-3.26-.91-5.22-.91-.39,0-.83,.01-1.31,.03-.49,.02-.97,.04-1.45,.07-.48,.02-.93,.05-1.36,.09-.42,.04-.77,.06-1.04,.08-.03,1.61-.06,3.17-.09,4.67-.01,.65-.02,1.31-.03,1.98,0,.67-.01,1.34-.02,1.99,0,.65-.01,1.28-.02,1.87,0,.6-.01,1.12-.01,1.58,0,.96,0,2.13,.02,3.49,.01,1.37,.03,2.76,.05,4.2,.02,1.44,.05,2.81,.1,4.14,.04,1.32,.09,2.42,.15,3.29,.2,.03,.47,.06,.81,.1,.34,.04,.69,.07,1.07,.09,.37,.02,.74,.04,1.1,.05,.36,.01,.66,.02,.9,.02,1.01,0,2.04-.07,3.09-.21,1.06-.14,2.07-.39,3.06-.76,.98-.37,1.91-.89,2.78-1.54,.87-.65,1.63-1.5,2.28-2.53,.65-1.03,1.17-2.28,1.54-3.74,.37-1.46,.56-3.18,.56-5.16,0-2.2-.27-4.15-.8-5.87-.53-1.71-1.31-3.16-2.34-4.34Z"/>
  <polygon class="cls-6" points="264.03 218.22 264.03 218.23 264.03 218.22 264.03 218.22"/>
  <path class="cls-6" d="M298.41,205.38c0-1.14,.09-2.24,.28-3.29-.15,.4-.3,.8-.41,1.22-.31,1.15-.46,2.32-.46,3.51,0,2.17,.39,4.07,1.15,5.76,.49,1.1,1.12,2.08,1.85,2.96-.6-1.07-1.1-2.21-1.47-3.44-.64-2.11-.95-4.36-.95-6.73Z"/>
  <path class="cls-6" d="M251.94,207.17c.1,0,.2,0,.3,0h0c.87,0,1.72-.02,2.55-.02l-1.44-3.24-1.41,3.27Z"/>
  <polygon class="cls-6" points="307.24 221.57 307.24 221.57 307.24 221.57 307.24 221.57"/>
  <polygon class="cls-6" points="302.28 217.73 302.3 217.75 302.28 217.73 302.28 217.73"/>
  <g>
    <path class="cls-3" d="M263.65,222.22v-.09c.03-.07,.05-.18,.06-.32,.01-.14,.02-.27,.02-.39,0-.44-.06-.94-.18-1.48s-.36-1.21-.7-2.01l-2.61-5.86c-.8-.03-1.87-.04-3.21-.04h-7.61c-1.06,0-2.01,.01-2.85,.04l-2.48,5.69c-.22,.53-.44,1.11-.69,1.74-.24,.63-.37,1.27-.37,1.92,0,.19,.01,.34,.04,.46,.03,.12,.06,.2,.09,.25v.09h-4.39v-.09c.26-.27,.58-.76,.97-1.45,.39-.7,.81-1.57,1.27-2.62l12.34-27.37h1.72l11.69,26.32c.27,.62,.56,1.22,.85,1.8,.29,.58,.57,1.1,.83,1.56,.26,.46,.49,.85,.69,1.16,.2,.32,.34,.52,.41,.6v.09h-5.9Zm-13.95-12.04c.83,0,1.69,0,2.56,0,.88,0,1.73-.02,2.57-.02,.84,0,1.65-.01,2.42-.02,.78,0,1.48-.02,2.11-.03l-6.05-13.67-5.94,13.76h2.33Z"/>
    <path class="cls-3" d="M238.28,216.85l.66-1.46-10.41-11.43,11.11-9.3c.98-.82,1.9-1.51,2.77-2.08,.87-.57,1.73-.95,2.57-1.15v-.09h-6.05c0,.83-.7,1.82-2.11,2.97l-12.58,10.27v-4.8c0-1.22,.02-2.29,.05-3.2,.04-.91,.08-1.7,.13-2.37,.05-.67,.12-1.22,.19-1.67,.08-.44,.16-.82,.25-1.12v-.09h-5.17v.09c.09,.3,.17,.67,.25,1.12,.08,.45,.15,1,.2,1.67,.06,.67,.1,1.46,.13,2.37,.03,.91,.04,1.98,.04,3.2v14.02c0,1.22-.01,2.29-.04,3.2-.03,.91-.07,1.7-.13,2.36-.06,.66-.13,1.21-.2,1.66-.08,.44-.16,.82-.25,1.12v.09h5.17v-.09c-.09-.3-.17-.67-.25-1.12-.08-.45-.14-1-.19-1.66-.05-.66-.09-1.45-.13-2.36-.04-.91-.05-1.98-.05-3.2v-8.83l12.92,14.18c.32-.57,.69-1.34,1.11-2.29h0Z"/>
    <path class="cls-3" d="M293.82,206.82c0-1.54,.2-3.06,.59-4.54,.34-1.29,.83-2.53,1.45-3.71-.81-1.69-1.85-3.1-3.15-4.18-1.42-1.18-3.07-2.02-4.95-2.54-1.88-.52-3.86-.77-5.94-.77-.77,0-1.6,.01-2.49,.04-.88,.03-1.73,.06-2.55,.09-.82,.03-1.55,.06-2.19,.09-.64,.03-1.1,.04-1.37,.04-.16,0-.37,0-.62-.01-.26,0-.51-.02-.75-.03-.29-.01-.6-.03-.93-.04v.09c.09,.3,.17,.68,.25,1.14,.08,.46,.15,1.02,.2,1.69,.06,.67,.1,1.46,.13,2.39,.03,.93,.04,2,.04,3.22v14.02c0,1.22-.01,2.29-.04,3.2-.03,.91-.07,1.7-.13,2.36,0,.02,0,.04,0,.06,.11,.19,.22,.36,.3,.5,.12,.2,.21,.33,.24,.36l.64,.78v1.21s.04,0,.06,0c.72,.04,1.5,.07,2.32,.12,.82,.04,1.63,.08,2.44,.12,.81,.04,1.5,.05,2.08,.05,1.61,0,3.17-.13,4.67-.39,1.51-.26,2.93-.67,4.25-1.23,1.33-.56,2.54-1.27,3.64-2.14,1.1-.87,2.04-1.91,2.83-3.13,.23-.36,.44-.74,.64-1.12-.05-.11-.12-.22-.17-.33-1.01-2.25-1.5-4.74-1.5-7.4Zm-1.41,5.07c-.37,1.46-.89,2.7-1.54,3.74-.65,1.03-1.41,1.88-2.28,2.53-.87,.65-1.8,1.17-2.78,1.54-.98,.37-2,.63-3.06,.76-1.06,.14-2.08,.21-3.09,.21-.24,0-.55,0-.9-.02-.36-.01-.73-.03-1.1-.05-.37-.02-.73-.05-1.07-.09-.34-.04-.61-.07-.81-.1-.06-.88-.11-1.97-.15-3.29-.04-1.32-.08-2.7-.1-4.14-.02-1.44-.04-2.83-.05-4.2-.01-1.36-.02-2.53-.02-3.49,0-.46,0-.99,.01-1.58,0-.6,.01-1.22,.02-1.87,0-.65,.01-1.32,.02-1.99,0-.67,.02-1.34,.03-1.98,.03-1.51,.06-3.07,.09-4.67,.27-.01,.62-.04,1.04-.08,.42-.03,.88-.06,1.36-.09,.48-.02,.96-.04,1.45-.07,.49-.02,.93-.03,1.31-.03,1.97,0,3.71,.3,5.22,.91,1.51,.61,2.79,1.51,3.81,2.68,1.03,1.18,1.81,2.62,2.34,4.34,.53,1.71,.8,3.67,.8,5.87,0,1.98-.19,3.7-.56,5.16Z"/>
    <path class="cls-3" d="M322.12,196.08l-.19,.09c-1.12-1.03-2.47-1.86-4.04-2.48-1.57-.62-3.3-.93-5.18-.93s-3.47,.28-4.98,.85c-1.51,.57-2.8,1.39-3.89,2.47-1.08,1.08-1.93,2.4-2.53,3.96-.6,1.56-.9,3.34-.9,5.34,0,2.2,.29,4.25,.86,6.15,.57,1.9,1.43,3.55,2.56,4.94,1.13,1.39,2.55,2.49,4.25,3.28,1.7,.8,3.69,1.2,5.95,1.2,.82,0,1.64-.09,2.45-.26,.82-.17,1.6-.43,2.36-.76,.75-.34,1.46-.75,2.13-1.23,.67-.48,1.27-1.03,1.82-1.65l.24,.15-1.72,4.39c-1.08,.42-2.27,.74-3.57,.96s-2.61,.33-3.93,.33c-2.66,0-5.09-.39-7.29-1.15-2.2-.77-4.1-1.86-5.69-3.26-1.59-1.41-2.82-3.1-3.7-5.07-.88-1.97-1.32-4.17-1.32-6.58,0-1.36,.18-2.71,.53-4.03,.35-1.32,.86-2.58,1.54-3.77,.67-1.19,1.51-2.29,2.5-3.29,.99-1,2.12-1.86,3.39-2.59,1.27-.73,2.67-1.3,4.2-1.71,1.53-.41,3.18-.61,4.96-.61,2.77,0,5.34,.42,7.71,1.27l1.46,3.98Z"/>
    <path class="cls-3" d="M337.67,190.82c2.4,0,4.61,.39,6.64,1.17,2.03,.78,3.79,1.88,5.27,3.29,1.48,1.41,2.63,3.11,3.47,5.09,.83,1.98,1.25,4.17,1.25,6.57,0,1.36-.16,2.71-.47,4.03-.32,1.32-.78,2.57-1.39,3.75-.61,1.18-1.36,2.27-2.25,3.26-.89,1-1.91,1.86-3.05,2.58-1.14,.72-2.4,1.29-3.78,1.7-1.38,.41-2.86,.61-4.46,.61-2.4,0-4.61-.39-6.64-1.15-2.03-.77-3.79-1.86-5.27-3.26-1.48-1.41-2.63-3.1-3.47-5.07-.83-1.97-1.25-4.17-1.25-6.58,0-1.36,.16-2.71,.47-4.03,.32-1.32,.78-2.58,1.39-3.77,.61-1.19,1.36-2.29,2.24-3.29,.88-1,1.9-1.86,3.04-2.59,1.14-.73,2.41-1.3,3.79-1.71,1.39-.41,2.87-.61,4.47-.61Zm1.23,30.13c1.59,0,3.05-.29,4.37-.86,1.32-.57,2.46-1.41,3.41-2.5,.95-1.09,1.7-2.42,2.23-3.99,.53-1.57,.8-3.36,.8-5.35,0-2.21-.25-4.26-.76-6.15-.51-1.89-1.27-3.52-2.27-4.91-1-1.39-2.26-2.47-3.76-3.25-1.5-.78-3.25-1.17-5.24-1.17-1.59,0-3.05,.28-4.37,.85-1.32,.57-2.46,1.39-3.41,2.47-.95,1.08-1.7,2.4-2.23,3.96-.53,1.56-.8,3.34-.8,5.34,0,2.2,.25,4.25,.75,6.15,.5,1.9,1.26,3.55,2.26,4.94,1,1.39,2.26,2.49,3.77,3.28,1.51,.8,3.26,1.2,5.26,1.2Z"/>
    <path class="cls-3" d="M370.1,196.25h-.47c-.12-.33-.3-.7-.55-1.12-.25-.42-.58-.81-.99-1.17-.41-.37-.9-.67-1.49-.92-.58-.24-1.27-.37-2.06-.37-.7,0-1.33,.11-1.87,.32-.55,.22-1,.52-1.37,.9-.37,.39-.64,.85-.83,1.38-.19,.53-.28,1.12-.28,1.77,0,1.03,.29,2.02,.87,2.96s1.31,1.87,2.19,2.79,1.82,1.84,2.84,2.76c1.02,.92,1.97,1.88,2.84,2.87,.88,.99,1.6,2.03,2.19,3.11s.87,2.25,.87,3.5c0,.93-.16,1.87-.49,2.81-.32,.94-.82,1.78-1.5,2.53-.67,.75-1.54,1.35-2.61,1.82-1.06,.47-2.33,.7-3.79,.7-.82,0-1.6-.08-2.34-.23-.74-.15-1.42-.34-2.05-.56-.63-.22-1.18-.46-1.68-.72-.49-.26-.9-.5-1.22-.71l.49-4.76h.54c.16,.67,.42,1.32,.77,1.93,.36,.61,.8,1.15,1.32,1.61,.52,.47,1.12,.84,1.8,1.12,.67,.28,1.41,.42,2.22,.42,.73,0,1.39-.11,1.97-.33,.58-.22,1.08-.53,1.5-.93,.42-.39,.74-.86,.96-1.41s.33-1.14,.33-1.79c0-.9-.16-1.74-.49-2.51-.33-.77-.76-1.5-1.3-2.19s-1.15-1.36-1.83-2c-.68-.65-1.38-1.3-2.1-1.95-.72-.65-1.42-1.32-2.1-2.01-.68-.69-1.29-1.42-1.83-2.21-.54-.78-.97-1.62-1.3-2.52-.33-.9-.49-1.88-.49-2.96,0-1.13,.22-2.16,.66-3.07,.44-.91,1.02-1.69,1.74-2.34,.72-.65,1.55-1.14,2.47-1.49,.92-.35,1.87-.52,2.84-.52,.72,0,1.38,.06,1.98,.17,.6,.12,1.14,.25,1.62,.41,.48,.16,.9,.32,1.26,.47,.36,.16,.65,.29,.88,.39l-.15,4.03Z"/>
  </g>
</svg>